# xmcd
#
# Track frame offsets: 
#        150
#        20293
#        35372
#        61422
#        83083
#        105100
#        125326
#        144097
#        164344
#        188325
#        205953
#        222320
#
# Disc length: 3087 seconds
#
# Revision: 0
# Processed by: cddbd v1.5.2PL0 Copyright (c) Steve Scherf et al.
# Submitted via: ExactAudioCopy v1.3
#
DISCID=910c0d0c
DTITLE=Zed Mitchell - Autumn In Berlin
DYEAR=2013
DGENRE=Blues Rock
TTITLE0=One Night In Berlin
TTITLE1=I'm In Vegas Tonight
TTITLE2=This Is The End
TTITLE3=Tears In Blue
TTITLE4=Like You Do
TTITLE5=Blue Heart
TTITLE6=Up and Down
TTITLE7=Early Morning Blues
TTITLE8=Stranger In My Mirror
TTITLE9=People Asking
TTITLE10=Waiting For The Fire
TTITLE11=Good Morning, Angels
EXTD=
EXTT0=
EXTT1=
EXTT2=
EXTT3=
EXTT4=
EXTT5=
EXTT6=
EXTT7=
EXTT8=
EXTT9=
EXTT10=
EXTT11=
PLAYORDER=
